Coordinates
version=1
nRows=8
nColumns=60
inDegrees=yes

Units are S.I. units (second, meters, Newtons, ...)
If the header above contains a line with 'inDegrees', this indicates whether rotational values are in degrees (yes) or radians (no).

endheader
time	pelvis_tilt	pelvis_list	pelvis_rotation	pelvis_tx	pelvis_ty	pelvis_tz	hip_flexion_r	hip_adduction_r	hip_rotation_r	knee_angle_r_beta	knee_angle_r	ankle_angle_r	subtalar_angle_r	mtp_angle_r	hip_flexion_l	hip_adduction_l	hip_rotation_l	knee_angle_l_beta	knee_angle_l	ankle_angle_l	subtalar_angle_l	mtp_angle_l	L5_S1_Flex_Ext	L5_S1_Lat_Bending	L5_S1_axial_rotation	L4_L5_Flex_Ext	L4_L5_Lat_Bending	L4_L5_axial_rotation	L3_L4_Flex_Ext	L3_L4_Lat_Bending	L3_L4_axial_rotation	L2_L3_Flex_Ext	L2_L3_Lat_Bending	L2_L3_axial_rotation	L1_L2_Flex_Ext	L1_L2_Lat_Bending	L1_L2_axial_rotation	L1_T12_Flex_Ext	L1_T12_Lat_Bending	L1_T12_axial_rotation	Abs_r3	Abs_r2	Abs_r1	Abs_t1	Abs_t2	arm_flex_r	arm_add_r	arm_rot_r	elbow_flex_r	pro_sup_r	wrist_flex_r	wrist_dev_r	arm_flex_l	arm_add_l	arm_rot_l	elbow_flex_l	pro_sup_l	wrist_flex_l	wrist_dev_l
      2.25000000	      0.99550625	     11.11898540	     93.50704945	      0.40281909	      0.94376980	      0.28472372	     -3.01030621	     -3.07037749	     -2.13599392	      0.24290676	    -13.91753214	      9.02318417	      0.00000000	      0.00000000	     -1.46990242	     -7.17025866	      0.29015501	      0.24733900	    -14.17148086	     10.57742128	      0.00000000	      0.00000000	     -7.18113373	      0.11566274	     -0.27185586	    -13.33608345	      0.15383145	     -0.28884685	    -11.79788461	      0.28122239	     -0.28884685	     -8.20731774	      0.28122239	     -0.23787388	     -6.66840078	      0.23585946	     -0.22088289	     -4.10329981	      0.17916159	     -0.20389190	    -51.29412012	      1.30840007	     -1.51198075	      0.00000000	      0.00000000	     22.10994814	    -26.45790572	     18.31567048	     85.94449460	     68.12179406	    -30.62958946	     47.56484255	     24.16715548	    -25.14768806	     17.74656905	     82.07925969	     68.21582941	    -24.93033179	     46.96636320
      2.26000000	      0.95855659	     11.36422422	     93.59396635	      0.40255648	      0.94412931	      0.28262753	     -3.59980090	     -3.08784021	     -2.27163293	      0.23768874	    -13.61856178	      9.10112059	      0.00000000	      0.00000000	     -1.93891358	     -7.15988382	      0.26666913	      0.24510875	    -14.04369683	     10.68139272	      0.00000000	      0.00000000	     -7.10593038	      0.11045772	     -0.28597216	    -13.19642330	      0.14690876	     -0.30384542	    -11.67433301	      0.26856689	     -0.30384542	     -8.12136783	      0.26856689	     -0.25022564	     -6.59856695	      0.22524537	     -0.23235238	     -4.06032862	      0.17109900	     -0.21447912	    -50.75695008	      1.24951977	     -1.59049135	      0.00000000	      0.00000000	     21.92811183	    -26.74488962	     18.14968919	     86.63367074	     68.17013318	    -30.72173165	     48.60941976	     23.92962296	    -25.30782622	     17.66250844	     82.91272103	     68.33061561	    -25.32081879	     48.06146427
      2.27000000	      0.92085048	     11.72406187	     93.70981417	      0.40224618	      0.94464891	      0.28058317	     -4.31307537	     -3.09928459	     -2.43815989	      0.23264970	    -13.32984609	      9.13986969	      0.00000000	      0.00000000	     -2.50397094	     -7.15357985	      0.30071804	      0.24358335	    -13.95629814	     10.79387293	      0.00000000	      0.00000000	     -7.05972857	      0.10986735	     -0.30143115	    -13.11062193	      0.14612357	     -0.32027060	    -11.59842807	      0.26713147	     -0.32027060	     -8.06856378	      0.26713147	     -0.26375226	     -6.55566395	      0.22404149	     -0.24491281	     -4.03392891	      0.17018452	     -0.22607337	    -50.42693522	      1.24284140	     -1.67646965	      0.00000000	      0.00000000	     21.80412534	    -26.97754089	     17.87395228	     87.34623778	     68.30739150	    -30.73371854	     49.68369637	     23.73039414	    -25.44335113	     17.47878426	     83.83825776	     68.55715151	    -25.71682814	     49.21969640
      2.28000000	      0.89728589	     11.84668045	     93.79415371	      0.40187751	      0.94481184	      0.27853547	     -4.71843768	     -3.12795571	     -2.66187870	      0.22856327	    -13.09571071	      9.21462102	      0.00000000	      0.00000000	     -2.81707714	     -7.14152210	      0.21144629	      0.24178911	    -13.85349547	     10.88744014	      0.00000000	      0.00000000	     -6.96107068	      0.11136751	     -0.31276468	    -12.92740436	      0.14811879	     -0.33231247	    -11.43634302	      0.27077896	     -0.33231247	     -7.95580768	      0.27077896	     -0.27366909	     -6.46405023	      0.22710063	     -0.25412130	     -3.97755579	      0.17250827	     -0.23457351	    -49.72223175	      1.25981155	     -1.73950332	      0.00000000	      0.00000000	     21.77521206	    -27.25960480	     17.82862646	     87.72622910	     68.20989292	    -30.75512617	     50.50061619	     23.65051141	    -25.51222611	     17.52717907	     84.33577598	     68.59449478	    -26.06284853	     50.09694348
      2.29000000	      0.89586518	     12.15816507	     93.92275857	      0.40159835	      0.94520256	      0.27670673	     -5.33112666	     -3.08536452	     -2.83749328	      0.22467995	    -12.87321280	      9.25914915	      0.00000000	      0.00000000	     -3.26052968	     -7.18045584	      0.30958473	      0.24185077	    -13.85702833	     11.04120062	      0.00000000	      0.00000000	     -6.91624003	      0.11354194	     -0.32399260	    -12.84414936	      0.15101078	     -0.34424214	    -11.36269074	      0.27606587	     -0.34424214	     -7.90457073	      0.27606587	     -0.28349353	     -6.42242049	      0.23153472	     -0.26324399	     -3.95193955	      0.17587646	     -0.24299445	    -49.40201090	      1.28440910	     -1.80194967	      0.00000000	      0.00000000	     21.77547699	    -27.51417698	     17.57030237	     88.34066162	     68.22321135	    -30.73235598	     51.50482962	     23.64343308	    -25.63275428	     17.44089092	     85.19691158	     68.83303891	    -26.49582253	     51.30304265
      2.30000000	      0.88487074	     12.27418152	     93.99928895	      0.40134620	      0.94532919	      0.27485803	     -5.67495982	     -3.08658537	     -3.02363197	      0.22191340	    -12.71470148	      9.32638996	      0.00000000	      0.00000000	     -3.52587688	     -7.19253802	      0.21815212	      0.24087141	    -13.80091519	     11.14076110	      0.00000000	      0.00000000	     -6.82802746	      0.11520770	     -0.32805089	    -12.68032980	      0.15322624	     -0.34855407	    -11.21776632	      0.28011600	     -0.34855407	     -7.80375259	      0.28011600	     -0.28704453	     -6.34050630	      0.23493154	     -0.26654135	     -3.90153489	      0.17845672	     -0.24603817	    -48.77191737	      1.30325252	     -1.82452065	      0.00000000	      0.00000000	     21.86214486	    -27.76579410	     17.48859426	     88.65214372	     68.12334188	    -30.70235145	     52.26505154	     23.70761577	    -25.66354649	     17.48942641	     85.63872909	     68.91437186	    -26.82241513	     52.16377950
      2.31000000	      0.88556973	     12.42071552	     94.05971944	      0.40119645	      0.94546643	      0.27316931	     -6.01014651	     -3.06178339	     -3.14070970	      0.22029214	    -12.62180984	      9.39986897	      0.00000000	      0.00000000	     -3.78110066	     -7.22216943	      0.18816528	      0.24116677	    -13.81783818	     11.26013882	      0.00000000	      0.00000000	     -6.75450966	      0.11682753	     -0.32663252	    -12.54379990	      0.15538061	     -0.34704705	    -11.09698393	      0.28405445	     -0.34704705	     -7.71972909	      0.28405445	     -0.28580346	     -6.27223767	      0.23823469	     -0.26538892	     -3.85952682	      0.18096584	     -0.24497439	    -48.24678707	      1.32157635	     -1.81663210	      0.00000000	      0.00000000	     21.99468351	    -27.99745064	     17.35248820	     88.98178685	     68.01586566	    -30.65417432	     53.03240936	     23.87117121	    -25.71473909	     17.54168223	     86.14259574	     69.04821346	    -27.17085204	     53.11776923
      2.32000000	      0.87543467	     12.52448624	     94.08999288	      0.40104067	      0.94553152	      0.27155484	     -6.26520227	     -3.05541329	     -3.24047481	      0.21931951	    -12.56608252	      9.48122690	      0.00000000	      0.00000000	     -3.99448019	     -7.22649796	      0.10867805	      0.24138147	    -13.83013966	     11.37424207	      0.00000000	      0.00000000	     -6.67701775	      0.11795824	     -0.32181023	    -12.39988967	      0.15688445	     -0.34192337	    -10.96967246	      0.28680365	     -0.34192337	     -7.63116359	      0.28680365	     -0.28158395	     -6.20027868	      0.24054043	     -0.26147081	     -3.81524794	      0.18271731	     -0.24135767	    -47.69327009	      1.33436715	     -1.78981195	      0.00000000	      0.00000000	     22.20013637	    -28.23060167	     17.24672059	     89.23552170	     67.88759118	    -30.58675721	     53.75314288	     24.09883069	    -25.73323360	     17.62202783	     86.54937339	     69.15452159	    -27.50205293	     53.99839968
